<?xml version="1.0" encoding="UTF-8" standalone="no"?>
<!-- Generated by IcoMoon.io -->

<svg
   xmlns:dc="http://purl.org/dc/elements/1.1/"
   xmlns:cc="http://creativecommons.org/ns#"
   xmlns:rdf="http://www.w3.org/1999/02/22-rdf-syntax-ns#"
   xmlns:svg="http://www.w3.org/2000/svg"
   xmlns="http://www.w3.org/2000/svg"
   xmlns:sodipodi="http://sodipodi.sourceforge.net/DTD/sodipodi-0.dtd"
   xmlns:inkscape="http://www.inkscape.org/namespaces/inkscape"
   version="1.1"
   width="448"
   height="448"
   viewBox="0 0 448 448"
   id="svg3736"
   sodipodi:docname="favicon.svg"
   inkscape:version="0.92.1 r15371">
  <metadata
     id="metadata3742">
    <rdf:RDF>
      <cc:Work
         rdf:about="">
        <dc:format>image/svg+xml</dc:format>
        <dc:type
           rdf:resource="http://purl.org/dc/dcmitype/StillImage" />
        <dc:title></dc:title>
      </cc:Work>
    </rdf:RDF>
  </metadata>
  <defs
     id="defs3740" />
  <sodipodi:namedview
     pagecolor="#ffffff"
     bordercolor="#666666"
     borderopacity="1"
     objecttolerance="10"
     gridtolerance="10"
     guidetolerance="10"
     inkscape:pageopacity="0"
     inkscape:pageshadow="2"
     inkscape:window-width="1855"
     inkscape:window-height="1056"
     id="namedview3738"
     showgrid="false"
     inkscape:pagecheckerboard="false"
     inkscape:zoom="1.0200893"
     inkscape:cx="-196.15714"
     inkscape:cy="86.222398"
     inkscape:window-x="65"
     inkscape:window-y="24"
     inkscape:window-maximized="1"
     inkscape:current-layer="svg3736" />
  <g
     id="icomoon-ignore" />
  <path
     d="m 333.27363,141.5 c 2.75,3 3.5,7.25 1.75,11 l -135,289.25 c -2,3.75 -6,6.25 -10.5,6.25 -1,0 -2.25,-0.25 -3.5,-0.5 -5.5,-1.75 -8.75,-7 -7.5,-12.25 l 49.25,-202 -101.5,25.25 c -1,0.25 -2,0.25 -3,0.25 -2.75,0 -5.75,-1 -7.75,-2.75 -3,-2.5 -4,-6.25 -3.25,-9.75 L 162.52363,40 c 1.25,-4.75 5.75,-8 11,-8 h 82 c 6.25,0 11.25,4.75 11.25,10.5 0,1.5 -0.5,3 -1.25,4.5 l -42.75,115.75 99,-24.5 c 1,-0.25 2,-0.5 3,-0.5 3.25,0 6.25,1.5 8.5,3.75 z"
     id="path3734"
     style="fill:#e31937;fill-opacity:1;stroke:none;stroke-opacity:1"
     inkscape:connector-curvature="0" />
</svg>
